<svg xmlns="http://www.w3.org/2000/svg" version="1.1" xmlns:xlink="http://www.w3.org/1999/xlink" xmlns:svgjs="http://svgjs.dev/svgjs" width="200" height="200" viewBox="0 0 1000 1000"><rect width="1000" height="1000" fill="#ffffff"></rect><g transform="matrix(0.7,0,0,0.7,150.00005140625,106.25)"><svg viewBox="0 0 320 360" data-background-color="#ffffff" preserveAspectRatio="xMidYMid meet" height="1125" width="1000" xmlns="http://www.w3.org/2000/svg" xmlns:xlink="http://www.w3.org/1999/xlink"><g id="tight-bounds" transform="matrix(1,0,0,1,0.000023499999997511622,0)"><svg viewBox="0 0 320 360" height="360" width="320"><g><svg></svg></g><g><svg viewBox="0 0 320 360" height="360" width="320"><g><path transform="translate(-74.99272,-51.79039) scale(4.65793,4.65793)" d="M20.6 59.9l0.8 1-0.4-1.3c-0.1-0.6-0.8 0.1-0.4 0.3M21.5 59.3c0.3 0.5 0.6 1 0.6 1.5 0 0.7 0.6 1 1.1 1.2-0.7-0.8-1.1-3-1.7-2.7M59.9 16.9c1.7 0 3.3-0.2 5.1 0.2 4.4 1.1 8.1 3.3 10.6 6.4l7 11.2c0.3 2.8 0.9 5.9 0.8 9.3 0.7 0 0.6-1 1.4-1.2-0.8 2-1.2 4.5-1.4 7.4-0.5-1.6 0-4 0.1-5.3-0.7 1.1-1.1 0.3-1.1-0.2 0.1-0.8-0.3-0.7-0.6-1-1.1-1-1.8-2.1-2.6-3.8 0.5-1.3 0.6-3.2-1-4.2-0.5-0.3-1.1-0.8-1.4-1.6-0.4-1.1-1.1-2.4-0.9-4.1 0.1-0.5-1.5 1.1-2.4 0.4-3.9-2.7-7.8-5.8-12.5-8.4-2.5 0-4.3-0.9-5.2-2-0.8-1-0.2-2.3 1-2.4 0.7 0 1.5-0.2 2.1 0.2 0.1-0.4 0.5-0.9 1-0.9M50 14.6l0.2 0.1c1 0.2 1.5 1.6 2.6 1.1 0 0.7 0.1 1.4-0.1 1.9-0.3 0.8-1.2 0.8-1.9 0.8-6.7-0.4-10.6 2.4-14.7 4.8-1.1 0.7-2.3 1.2-3.2 2.1-4.3 4-9 7.7-10.1 15.1l-0.9 8.2c-0.1 0.9-1.1 1.8-0.9 2.9l0.7 4.9c-0.7-0.7-1.1 0.2-0.9 0.6 0.1 0.3 0.5 1.3 1.1 0.4 0.8 1.5 1.6 4.4 2.7 5.7 3.4 4 7.8 7.6 11.4 11.2 0.9-0.2 1.6-0.2 1.8-0.8 0.3 0.6-0.3 1.2-0.8 1.3 1.6 1 3.4 1.9 5.8 2.1 3.1 0.2 6 0.7 8.7 1.4 1.4-0.4 2.8-0.6 4.3-0.7 0.5 0 0.8-0.8 1.4-1l0.1-1c0.6 0.9 0.5-0.3 0.1-0.9 0.7 0.6 0.9 1.1 1.2 1.5 0-0.3 0.8-1.4 0.8-0.1l0.2-1.3c0.3-0.2 0.4 1.1 0.7 0.2 0.3-0.9 0.9-0.2 1.5-0.5-0.2 0.4-0.1 1.2 0.6 0.7l0.8-0.7c0.5 1.2 1.3 0.7 1.7 0.5 4.4-2.8 8.8-6.1 13-9.4l-0.1 1.3 0.5-1.6c0.5 0.5 0.9 0.1 1.1-0.2 0.6-1 1.4-2 2.7-2.9-1.6 4.3-3.5 7.7-5.9 10.5l-1 1.2c0 0.7-0.2 1.6-1 1.7-0.4 0.1-1.2-0.2-1.8 0.4-0.3 0.4 0.7 1.2-0.1 0.6-0.7-0.5-1.4 0-2.2 0.2-0.6 0.2 0.4 0.8 0.6 1.2 0.2 0.4 0.4 0.8 0.3 1.3l-1.1-1.2c-1.3 0.7-2.1 2-3.2 3-0.5 0.4-0.3 1.1-0.3 1.7-0.7 0-1.5-0.2-1.9 0.2-0.3 0.4-0.2 1-0.2 1.6-1-0.1-1.1-1.6-2-1.3-0.9 0.2-1.9 0.3-2.7 0.8 0.6 1.2-1 0.5-0.8 0.7-1.5-0.9-2.8-1.6-4.4-1-3.4-1.1-7.6-0.6-10.7-0.2 0-0.5 0.1-1-0.1-1.1-0.2 0.5-0.8 0.3-0.7 0.3-1.9-1.3-3.8-2.1-5.8-3.2-1.8 0.2-3.5-0.7-4-1.2-1.4-1.3-3-0.6-4.3-0.9-2.8-0.7-3.8-3.6-4.1-5.6-0.2-1-1-1.4-1.3-1.3-1.3-4.2-3.3-8-4.9-11.9-0.4-1-0.3-2-0.3-3.1 0.5 0.2 1 0.1 0.9-0.6-0.5-3.3-1.7-5.8-3-8.2 0.7-3.4 0.8-7.4 2.4-10.4 1.4-2.7 4-4.1 5.8-6.4 0.6-0.8 0.6-1.9 1.2-2.6 2-2 4-4.1 6.2-5.9 1-0.8 2.2 0 3.7-0.3 0.5-1.8 2.5-3.4 4.4-2.9 0.8 0.2 2.4-1.9 2.9-2.1 0.8-0.3 0.4 0.8 0.4 1.5 1.9-1.5 4.5-2.3 6.9-3.2" fill="#000000" fill-rule="nonzero" stroke="none" stroke-width="1" stroke-linecap="butt" stroke-linejoin="miter" stroke-miterlimit="10" stroke-dasharray="" stroke-dashoffset="0" font-family="none" font-weight="none" font-size="none" text-anchor="none" style="mix-blend-mode: normal" data-fill-palette-color="tertiary"></path></g><g transform="matrix(1,0,0,1,64,133.33800679739554)"><svg viewBox="0 0 192 93.32398640520893" height="93.32398640520893" width="192"><g><svg viewBox="0 0 192 93.32398640520893" height="93.32398640520893" width="192"><g><svg viewBox="0 0 192 93.32398640520893" height="93.32398640520893" width="192"><g transform="matrix(1,0,0,1,0,55.46016236852652)"><svg viewBox="0 0 192 37.8638240366824" height="37.8638240366824" width="192"><g id="textblocktransform"><svg viewBox="0 0 192 37.8638240366824" height="37.8638240366824" width="192" id="textblock"><g><svg viewBox="0 0 192 21.465677680377617" height="21.465677680377617" width="192"><g transform="matrix(1,0,0,1,0,0)"><svg width="192" viewBox="-2.1 -31.2 370.71000000000004 41.45" height="21.465677680377617" data-palette-color="#233565"><path d="M28.6-13.5L28.6-13.5Q26.1-13.5 23.95-13.9L23.95-13.9Q24.65-11.7 26.9-3.95L26.9-3.95Q27.6-1.7 29.1 0.6L29.1 0.6Q31.15 3.55 32.9 3.55L32.9 3.55Q35 3.55 36.4-0.7L36.4-0.7Q36.65-1.7 36.93-1.7 37.2-1.7 37.33-1.13 37.45-0.55 37.45-0.35L37.45-0.35Q37.45 0.9 36.05 2.85L36.05 2.85Q34.2 5.6 32 5.6 29.8 5.6 27.95 3.4 26.1 1.2 24.33-4.63 22.55-10.45 22.55-12.05L22.55-12.05Q22.55-12.3 22.6-12.45L22.6-12.45Q16.6-4.5 14-1.95L14-1.95Q8.2 3.7 2.15 3.7L2.15 3.7Q-2.1 3.7-2.1 0.5L-2.1 0.5Q-2.1-1.1-1.1-3.03-0.1-4.95 1.35-6.4 2.8-7.85 3.9-7.85L3.9-7.85Q4.1-7.85 4.1-7.75L4.1-7.75Q4.1-7.5 2.85-6.5 1.6-5.5 0.45-3.68-0.7-1.85-0.7-0.35L-0.7-0.35Q-0.7 2.3 2.85 2.3L2.85 2.3Q9.5 2.3 21.15-13.3L21.15-13.3Q21.8-14.15 22.25-14.5L22.25-14.5 21.45-14.8Q20.8-14.55 20.4-14.55L20.4-14.55Q19.35-14.55 19.35-15.4L19.35-15.4Q19.35-16.55 20.9-16.9L20.9-16.9Q21.1-16.95 21.25-16.95L21.25-16.95Q22.15-16.95 23.35-16.05L23.35-16.05Q27.75-20.95 27.85-21.05L27.85-21.05Q31.5-24.8 32.77-24.8 34.05-24.8 34.05-23.7L34.05-23.7Q34.05-23.2 33.83-22.75 33.6-22.3 33.3-22.3L33.3-22.3Q33-22.2 33-22.6L33-22.6Q33-22.8 33.3-23.2L33.3-23.2Q33.35-23.9 32.85-23.9L32.85-23.9Q31.25-23.9 25.1-15.4L25.1-15.4Q26.6-15.3 27.6-15.3L27.6-15.3Q39.2-15.3 42.1-21.3L42.1-21.3Q42.7-22.6 42.7-23.7L42.7-23.7Q42.7-25.9 40.7-27.5L40.7-27.5Q37.5-30.1 30.3-30.1 23.1-30.1 15.6-26.45L15.6-26.45Q6.5-22 6.5-16L6.5-16Q6.5-14.05 8.95-14.05 11.4-14.05 14.15-15.85 16.9-17.65 17.85-19.4L17.85-19.4Q18.2-20.05 18.53-20.05 18.85-20.05 18.7-19.65L18.7-19.65Q17.75-16.85 14.48-14.88 11.2-12.9 7.65-12.9 4.1-12.9 4.1-15.15L4.1-15.15Q4.1-15.3 4.1-15.5L4.1-15.5Q4.85-22.05 12.13-26.63 19.4-31.2 29.65-31.2L29.65-31.2Q39.2-31.2 43.2-27.9L43.2-27.9Q45.6-25.9 45.6-23.2L45.6-23.2Q45.6-22.05 45.05-20.7L45.05-20.7Q43.5-17.05 38.7-15.28 33.9-13.5 28.6-13.5ZM54.2-14.95L54.2-14.95 54.9-15.1Q55.45-15.1 55.95-14.65 56.45-14.2 56.45-13.95 56.45-13.7 53.35-9.13 50.25-4.55 50.25-2.75L50.25-2.75Q50.25-2.6 50.3-2.45L50.3-2.45Q50.55-1.3 51.4-1.3L51.4-1.3Q54-1.3 60.9-9.9L60.9-9.9Q61.05-10.1 61.25-10.1 61.45-10.1 61.45-9.73 61.45-9.35 61-8.75L61-8.75Q54.6-0.2 51.25-0.2L51.25-0.2Q50.8-0.2 50.4-0.35L50.4-0.35Q48.2-1.2 48.2-3.65L48.2-3.65Q48.2-4.5 48.4-5.35L48.4-5.35 45.3-2.35Q42.35 0.25 41.02 0.25 39.7 0.25 38.5-0.6L38.5-0.6Q37.15-1.6 37.15-3.25L37.15-3.25Q37.15-6.9 42.25-11.98 47.35-17.05 51.6-17.05L51.6-17.05Q53.25-17.05 53.8-15.9L53.8-15.9Q53.95-15.5 54.05-15.23 54.15-14.95 54.2-14.95ZM39.25-2.65L39.25-2.65Q39.25-0.85 40.5-0.85L40.5-0.85Q43.4-0.85 48.4-7.2L48.4-7.2 53.7-14.5Q53.3-15.2 52.4-15.2L52.4-15.2Q49.35-15.2 44.3-10.48 39.25-5.75 39.25-2.65ZM69.05-20.4Q69.8-20.4 70.47-19.93 71.15-19.45 71.15-18.8 71.15-18.15 70.52-17.68 69.9-17.2 69.15-17.2 68.4-17.2 67.77-17.75 67.15-18.3 67.15-19L67.15-19Q67.15-20.4 69.05-20.4L69.05-20.4ZM60 0.55L60 0.55Q57.45 0.55 57.45-2.75L57.45-2.75Q57.45-5.45 60.4-10.23 63.35-15 65.15-15.05L65.15-15.05Q65.65-15.05 66.27-14.65 66.9-14.25 66.9-13.85L66.9-13.85Q66.65-13.5 66.3-13.08 65.95-12.65 65.55-12.15 65.15-11.65 64.45-10.73 63.75-9.8 63.1-8.95L63.1-8.95Q59.35-4.1 59.35-2.27 59.35-0.45 60.6-0.45L60.6-0.45Q61.65-0.45 63.45-1.6L63.45-1.6Q67.65-4.2 70.1-7.3L70.1-7.3Q71-8.45 71.32-8.45 71.65-8.45 71.65-8.05 71.65-7.65 70.5-6.45 69.35-5.25 68.67-4.55 68-3.85 67.75-3.63 67.5-3.4 66.82-2.78 66.15-2.15 65.8-1.9 65.45-1.65 64.8-1.15 64.15-0.65 63.65-0.43 63.15-0.2 62.5 0.1L62.5 0.1Q61.45 0.55 60 0.55ZM66.69 5.8L66.69 5.8Q69.09 8.8 70.84 8.8L70.84 8.8Q73.69 8.8 76.99 4.25L76.99 4.25Q79.39 0.9 81.69-4.2L81.69-4.2 83.59-8.8 76.24-3.05Q72.84-0.4 70.79-0.4L70.79-0.4Q69.69-0.4 69.04-1.15 68.39-1.9 68.39-2.85L68.39-2.85Q68.39-5 72.09-9.93 75.79-14.85 77.49-14.85 79.19-14.85 79.19-13.7L79.19-13.7Q79.19-13.25 74.77-8.53 70.34-3.8 70.34-2.15L70.34-2.15Q70.34-1.5 71.19-1.5L71.19-1.5Q72.79-1.5 77.62-5.25 82.44-9 84.89-11.45L84.89-11.45Q85.44-12.1 86.44-13.4L86.44-13.4Q87.39-14.5 88.54-14.5 89.69-14.5 89.69-13.4L89.69-13.4Q89.69-13.2 87.44-9.85 85.19-6.5 85.09-6.3L85.09-6.3Q83.54-3.3 80.34 2.45L80.34 2.45Q75.49 10.25 70.64 10.25L70.64 10.25Q69.04 10.25 67.84 8.88 66.64 7.5 66.69 5.8ZM104.59-14.95L104.59-14.95 105.29-15.1Q105.84-15.1 106.34-14.65 106.84-14.2 106.84-13.95 106.84-13.7 103.74-9.13 100.64-4.55 100.64-2.75L100.64-2.75Q100.64-2.6 100.69-2.45L100.69-2.45Q100.94-1.3 101.79-1.3L101.79-1.3Q104.39-1.3 111.29-9.9L111.29-9.9Q111.44-10.1 111.64-10.1 111.84-10.1 111.84-9.73 111.84-9.35 111.39-8.75L111.39-8.75Q104.99-0.2 101.64-0.2L101.64-0.2Q101.19-0.2 100.79-0.35L100.79-0.35Q98.59-1.2 98.59-3.65L98.59-3.65Q98.59-4.5 98.79-5.35L98.79-5.35 95.69-2.35Q92.74 0.25 91.42 0.25 90.09 0.25 88.89-0.6L88.89-0.6Q87.54-1.6 87.54-3.25L87.54-3.25Q87.54-6.9 92.64-11.98 97.74-17.05 101.99-17.05L101.99-17.05Q103.64-17.05 104.19-15.9L104.19-15.9Q104.34-15.5 104.44-15.23 104.54-14.95 104.59-14.95ZM89.64-2.65L89.64-2.65Q89.64-0.85 90.89-0.85L90.89-0.85Q93.79-0.85 98.79-7.2L98.79-7.2 104.09-14.5Q103.69-15.2 102.79-15.2L102.79-15.2Q99.74-15.2 94.69-10.48 89.64-5.75 89.64-2.65ZM111.94-2.05L111.94-2.05Q109.94-0.65 109.09-0.65L109.09-0.65Q107.94-0.65 107.94-1.9L107.94-1.9Q107.94-2.35 108.24-3 108.54-3.65 108.84-3.65L108.84-3.65Q109.29-3.65 109.04-2.9L109.04-2.9Q108.89-2.15 109.49-2.15 110.09-2.15 110.94-2.75L110.94-2.75 109.04-4.2Q108.94-4.3 108.94-4.55 108.94-4.8 109.44-5.28 109.94-5.75 110.21-5.75 110.49-5.75 112.64-4.05L112.64-4.05Q118.84-11.05 121.74-13.25L121.74-13.25Q117.79-14.45 115.89-14.45L115.89-14.45Q115.34-14.45 114.84-14.38 114.34-14.3 113.76-13.78 113.19-13.25 113.19-12.6 113.19-11.95 113.74-11.53 114.29-11.1 114.29-10.85 114.29-10.6 113.91-10.6 113.54-10.6 112.69-11.6L112.69-11.6Q111.89-12.6 111.89-13.65L111.89-13.65Q111.89-15.4 114.44-15.95L114.44-15.95Q115.79-16.2 117.19-16.2 118.59-16.2 124.09-14.4L124.09-14.4Q124.79-14.8 125.59-14.8L125.59-14.8Q127.69-14.8 127.69-13.55L127.69-13.55Q127.69-13.05 127.04-12.63 126.39-12.2 125.49-12.2 124.59-12.2 123.84-12.55L123.84-12.55Q119.09-9.6 113.64-3.25L113.64-3.25 115.44-1.85Q117.59-0.45 120.44-0.45 123.29-0.45 124.64-1.35 125.99-2.25 125.99-3.65L125.99-3.65Q125.99-4.3 125.74-4.88 125.49-5.45 126.19-5.45L126.19-5.45Q126.44-5.45 126.69-4.88 126.94-4.3 126.94-3.5L126.94-3.5Q126.94-1.5 125.04-0.2 123.14 1.1 120.14 1.1L120.14 1.1Q116.84 1.1 114.69-0.15L114.69-0.15Q113.84-0.6 111.94-2.05ZM176.28-13.5L176.28-13.5Q173.78-13.5 171.63-13.9L171.63-13.9Q172.33-11.7 174.58-3.95L174.58-3.95Q175.28-1.7 176.78 0.6L176.78 0.6Q178.83 3.55 180.58 3.55L180.58 3.55Q182.68 3.55 184.08-0.7L184.08-0.7Q184.33-1.7 184.61-1.7 184.88-1.7 185-1.13 185.13-0.55 185.13-0.35L185.13-0.35Q185.13 0.9 183.73 2.85L183.73 2.85Q181.88 5.6 179.68 5.6 177.48 5.6 175.63 3.4 173.78 1.2 172-4.63 170.23-10.45 170.23-12.05L170.23-12.05Q170.23-12.3 170.28-12.45L170.28-12.45Q164.28-4.5 161.68-1.95L161.68-1.95Q155.88 3.7 149.83 3.7L149.83 3.7Q145.58 3.7 145.58 0.5L145.58 0.5Q145.58-1.1 146.58-3.03 147.58-4.95 149.03-6.4 150.48-7.85 151.58-7.85L151.58-7.85Q151.78-7.85 151.78-7.75L151.78-7.75Q151.78-7.5 150.53-6.5 149.28-5.5 148.13-3.68 146.98-1.85 146.98-0.35L146.98-0.35Q146.98 2.3 150.53 2.3L150.53 2.3Q157.18 2.3 168.83-13.3L168.83-13.3Q169.48-14.15 169.93-14.5L169.93-14.5 169.13-14.8Q168.48-14.55 168.08-14.55L168.08-14.55Q167.03-14.55 167.03-15.4L167.03-15.4Q167.03-16.55 168.58-16.9L168.58-16.9Q168.78-16.95 168.93-16.95L168.93-16.95Q169.83-16.95 171.03-16.05L171.03-16.05Q175.43-20.95 175.53-21.05L175.53-21.05Q179.18-24.8 180.46-24.8 181.73-24.8 181.73-23.7L181.73-23.7Q181.73-23.2 181.5-22.75 181.28-22.3 180.98-22.3L180.98-22.3Q180.68-22.2 180.68-22.6L180.68-22.6Q180.68-22.8 180.98-23.2L180.98-23.2Q181.03-23.9 180.53-23.9L180.53-23.9Q178.93-23.9 172.78-15.4L172.78-15.4Q174.28-15.3 175.28-15.3L175.28-15.3Q186.88-15.3 189.78-21.3L189.78-21.3Q190.38-22.6 190.38-23.7L190.38-23.7Q190.38-25.9 188.38-27.5L188.38-27.5Q185.18-30.1 177.98-30.1 170.78-30.1 163.28-26.45L163.28-26.45Q154.18-22 154.18-16L154.18-16Q154.18-14.05 156.63-14.05 159.08-14.05 161.83-15.85 164.58-17.65 165.53-19.4L165.53-19.4Q165.88-20.05 166.21-20.05 166.53-20.05 166.38-19.65L166.38-19.65Q165.43-16.85 162.16-14.88 158.88-12.9 155.33-12.9 151.78-12.9 151.78-15.15L151.78-15.15Q151.78-15.3 151.78-15.5L151.78-15.5Q152.53-22.05 159.81-26.63 167.08-31.2 177.33-31.2L177.33-31.2Q186.88-31.2 190.88-27.9L190.88-27.9Q193.28-25.9 193.28-23.2L193.28-23.2Q193.28-22.05 192.73-20.7L192.73-20.7Q191.18-17.05 186.38-15.28 181.58-13.5 176.28-13.5ZM187.83 0.65L187.83 0.65Q187.28 0.65 186.83 0.5L186.83 0.5Q183.63-0.4 183.63-3.1L183.63-3.1Q183.63-6.6 188.03-11.2 192.43-15.8 195.93-15.8L195.93-15.8Q197.08-15.8 197.8-15.18 198.53-14.55 198.53-13.65L198.53-13.65Q198.53-10.85 194.3-8.3 190.08-5.75 187.43-5.75L187.43-5.75Q187.03-5.75 186.73-5.85L186.73-5.85Q185.98-4.5 185.98-3L185.98-3Q185.98-0.4 188.45-0.4 190.93-0.4 194.88-3.75L194.88-3.75Q197.93-6.2 200.08-8.95L200.08-8.95Q200.53-9.55 200.85-9.55 201.18-9.55 201.18-9.25 201.18-8.95 200.78-8.4L200.78-8.4Q198.08-4.85 194.28-2.1 190.48 0.65 187.83 0.65ZM197.28-13.75L197.28-13.75Q197.28-14.35 196-14.35 194.73-14.35 192.38-12.4L192.38-12.4Q189.23-9.8 187.48-6.95L187.48-6.95Q187.78-6.85 188.13-6.85L188.13-6.85Q190.03-6.85 193.2-8.88 196.38-10.9 197.18-13.3L197.18-13.3Q197.28-13.55 197.28-13.75ZM208.93-1.8L207.32-0.75Q205.88 0.1 203.75 0.1 201.63 0.1 200.5-1.3 199.38-2.7 198.57-5.75L198.57-5.75Q197.68-4.85 197.32-4.85L197.32-4.85Q197.07-4.85 197.07-5.2 197.07-5.55 197.32-5.8L197.32-5.8Q198.97-7.85 202.93-11.7L202.93-11.7 209.22-17.6Q211.93-20.15 212.43-20.15L212.43-20.15Q214.03-20.15 214.03-18.95L214.03-18.95Q214.03-18.35 213.55-17.78 213.07-17.2 212.85-16.88 212.63-16.55 212.38-16.25L212.38-16.25Q211.47-14.7 210.55-9.85 209.63-5 209.13-3.1L209.13-3.1Q213.28-3.15 217.68-8.5L217.68-8.5Q218.18-9 218.43-9 218.68-9 218.68-8.68 218.68-8.35 218.22-7.8L218.22-7.8Q215.32-4.4 212.82-3.05L212.82-3.05Q211.32-2.3 208.93-1.8L208.93-1.8ZM200.57-6.3L200.57-6.3Q200.57-4.6 201.7-3.53 202.82-2.45 204.22-2.45 205.63-2.45 206.38-3L206.38-3Q207.38-3.55 208.35-7.6 209.32-11.65 209.53-14.75L209.53-14.75 209.72-16.45Q206.97-14.4 203.85-11.15 200.72-7.9 200.63-6.85L200.63-6.85Q200.57-6.55 200.57-6.3ZM229.12-16.1L229.12-16.1 236.32-16.2Q236.47-16.1 236.47-16.05L236.47-16.05Q236.47-15.6 230.25-14.8 224.02-14 223.52-13.85L223.52-13.85Q222.57-13 220.02-8.78 217.47-4.55 217.47-2.6L217.47-2.6Q217.47-0.75 220.02-0.75L220.02-0.75Q221.22-0.75 223.17-1.5 225.12-2.25 226.17-2.9L226.17-2.9Q228.97-4.65 232.17-8.05L232.17-8.05Q232.87-8.75 233.12-8.75L233.12-8.75Q233.27-8.75 233.27-8.45 233.27-8.15 232.52-7.25L232.52-7.25Q229.92-4.05 226.67-2.1L226.67-2.1Q222.77 0.3 219.22 0.3L219.22 0.3Q217.67 0.3 216.7-0.38 215.72-1.05 215.72-3.1 215.72-5.15 217.52-8.72 219.32-12.3 220.27-14.05L220.27-14.05Q219.57-13.9 219.07-13.9L219.07-13.9Q217.62-13.9 217.62-15.05L217.62-15.05Q217.62-15.9 218.82-16.25L218.82-16.25Q218.97-16.25 219.27-16.3L219.27-16.3 222.17-16.3Q223.07-17.45 224.22-18.95L224.22-18.95Q225.62-20.75 226.12-20.75 226.62-20.75 227.37-20.35 228.12-19.95 228.12-19.4 228.12-18.85 225.72-16.15L225.72-16.15Q227.02-16.1 229.12-16.1ZM247.52-14.95L247.52-14.95 248.22-15.1Q248.77-15.1 249.27-14.65 249.77-14.2 249.77-13.95 249.77-13.7 246.67-9.13 243.57-4.55 243.57-2.75L243.57-2.75Q243.57-2.6 243.62-2.45L243.62-2.45Q243.87-1.3 244.72-1.3L244.72-1.3Q247.32-1.3 254.22-9.9L254.22-9.9Q254.37-10.1 254.57-10.1 254.77-10.1 254.77-9.73 254.77-9.35 254.32-8.75L254.32-8.75Q247.92-0.2 244.57-0.2L244.57-0.2Q244.12-0.2 243.72-0.35L243.72-0.35Q241.52-1.2 241.52-3.65L241.52-3.65Q241.52-4.5 241.72-5.35L241.72-5.35 238.62-2.35Q235.67 0.25 234.34 0.25 233.02 0.25 231.82-0.6L231.82-0.6Q230.47-1.6 230.47-3.25L230.47-3.25Q230.47-6.9 235.57-11.98 240.67-17.05 244.92-17.05L244.92-17.05Q246.57-17.05 247.12-15.9L247.12-15.9Q247.27-15.5 247.37-15.23 247.47-14.95 247.52-14.95ZM232.57-2.65L232.57-2.65Q232.57-0.85 233.82-0.85L233.82-0.85Q236.72-0.85 241.72-7.2L241.72-7.2 247.02-14.5Q246.62-15.2 245.72-15.2L245.72-15.2Q242.67-15.2 237.62-10.48 232.57-5.75 232.57-2.65ZM265.52 0.3L265.52 0.3Q265.27 0.35 264.44 0.35 263.62 0.35 262.79-0.3 261.97-0.95 261.97-1.98 261.97-3 262.34-4.25 262.72-5.5 262.87-6.15L262.87-6.15Q257.12 0.55 253.87 0.55L253.87 0.55Q251.82 0.55 251.62-2L251.62-2Q251.62-2.2 251.62-2.35L251.62-2.35Q251.62-4.5 254.22-8.15L254.22-8.15Q252.77-6.85 251.27-5.15L251.27-5.15Q251.07-4.95 250.77-4.95L250.77-4.95Q250.57-4.95 250.57-5.2 250.57-5.45 251.02-6.05L251.02-6.05 257.92-14.15Q259.22-15.65 260.57-15.65 261.92-15.65 261.92-14.75L261.92-14.75Q261.92-14.4 261.62-14.1L261.62-14.1Q259.62-12.25 256.59-7.95 253.57-3.65 253.57-1.6L253.57-1.6Q253.57-0.7 254.17-0.7L254.17-0.7Q256.27-0.7 260.27-4.85L260.27-4.85Q261.67-6.25 265.47-11.03 269.27-15.8 270.47-15.8L270.47-15.8Q272.27-15.8 272.27-14.4L272.27-14.4Q272.27-13.9 270.17-11.5L270.17-11.5Q267.32-8.05 265.82-5.88 264.32-3.7 264.32-2.35 264.32-1 265.07-1L265.07-1Q265.42-1 265.87-1.2L265.87-1.2Q269.32-2.7 274.12-8.2L274.12-8.2Q274.42-8.55 274.72-8.55 275.02-8.55 275.02-8.22 275.02-7.9 274.67-7.5L274.67-7.5Q272.52-5 269.62-2.48 266.72 0.05 265.52 0.3ZM282.96 0.25L282.96 0.25Q279.21 0.25 279.21-3.9L279.21-3.9Q279.21-6 280.31-8.5 281.41-11 282.71-12.7L282.71-12.7Q282.46-12.65 282.06-12.65L282.06-12.65Q280.87-12.65 280.06-14.35L280.06-14.35 276.37-9.55Q273.26-5.7 272.76-5.7L272.76-5.7Q272.51-5.7 272.51-5.9L272.51-5.9Q272.51-6.4 273.37-7.35L273.37-7.35Q277.71-12.4 279.51-15.9L279.51-15.9Q280.66-20.25 282.41-20.25L282.41-20.25Q283.56-20.25 283.56-19.25 283.56-18.25 282.31-16.7L282.31-16.7 281.12-15.1Q281.12-14.05 282.66-14.05L282.66-14.05Q283.56-14.05 284.66-14.7L284.66-14.7 285.96-15.5Q286.06-15.55 286.46-15.55 286.87-15.55 287.31-15.05 287.76-14.55 287.62-14.15L287.62-14.15 284.16-9.8Q280.96-5.7 280.96-3.33 280.96-0.95 283.16-0.95L283.16-0.95Q285.46-0.95 288.81-3.4L288.81-3.4Q290.81-4.85 292.46-6.65L292.46-6.65Q294.01-8.45 294.16-8.45L294.16-8.45Q294.51-8.45 294.51-8.08 294.51-7.7 294.06-7.2L294.06-7.2 292.46-5.4Q291.12-4 289.46-2.7L289.46-2.7Q285.51 0.25 282.96 0.25ZM309.06-14.95L309.06-14.95 309.76-15.1Q310.31-15.1 310.81-14.65 311.31-14.2 311.31-13.95 311.31-13.7 308.21-9.13 305.11-4.55 305.11-2.75L305.11-2.75Q305.11-2.6 305.16-2.45L305.16-2.45Q305.41-1.3 306.26-1.3L306.26-1.3Q308.86-1.3 315.76-9.9L315.76-9.9Q315.91-10.1 316.11-10.1 316.31-10.1 316.31-9.73 316.31-9.35 315.86-8.75L315.86-8.75Q309.46-0.2 306.11-0.2L306.11-0.2Q305.66-0.2 305.26-0.35L305.26-0.35Q303.06-1.2 303.06-3.65L303.06-3.65Q303.06-4.5 303.26-5.35L303.26-5.35 300.16-2.35Q297.21 0.25 295.89 0.25 294.56 0.25 293.36-0.6L293.36-0.6Q292.01-1.6 292.01-3.25L292.01-3.25Q292.01-6.9 297.11-11.98 302.21-17.05 306.46-17.05L306.46-17.05Q308.11-17.05 308.66-15.9L308.66-15.9Q308.81-15.5 308.91-15.23 309.01-14.95 309.06-14.95ZM294.11-2.65L294.11-2.65Q294.11-0.85 295.36-0.85L295.36-0.85Q298.26-0.85 303.26-7.2L303.26-7.2 308.56-14.5Q308.16-15.2 307.26-15.2L307.26-15.2Q304.21-15.2 299.16-10.48 294.11-5.75 294.11-2.65ZM321.11-15.8L321.11-15.8Q322.46-15.8 322.46-14.75L322.46-14.75Q322.46-14.45 322.31-14.15L322.31-14.15Q317.81-7.9 316.91-4.7L316.91-4.7Q328.56-16.35 331.06-16.35L331.06-16.35Q331.31-16.4 331.51-16.4L331.51-16.4Q332.91-16.4 332.91-15.15L332.91-15.15Q332.91-14.9 332.81-14.65 332.71-14.4 330.81-11.95L330.81-11.95Q328.61-9.35 327.08-6.95 325.56-4.55 325.56-2.95 325.56-1.35 326.26-1.35L326.26-1.35Q328.46-1.35 333.91-7.4L333.91-7.4Q334.01-7.5 334.26-7.85L334.26-7.85Q335.01-8.75 335.16-8.75 335.31-8.75 335.31-8.25 335.31-7.75 334.61-6.95L334.61-6.95Q328.41 0.1 325.81 0.1L325.81 0.1Q323.36 0.1 323.36-2.6 323.36-5.3 325.36-8.8L325.36-8.8 328.56-14Q325.16-11.5 322.51-8.53 319.86-5.55 317.69-2.75 315.51 0.05 315.16 0.05L315.16 0.05Q314.41 0.05 313.99-0.58 313.56-1.2 313.56-2.13 313.56-3.05 314.21-4.6 314.86-6.15 315.86-8.35L315.86-8.35 312.86-5.2Q311.76-4.1 311.49-4.1 311.21-4.1 311.21-4.42 311.21-4.75 311.61-5.15L311.61-5.15Q313.46-7 314.81-8.7L314.81-8.7Q316.11-10.4 320.16-15.2L320.16-15.2Q320.61-15.8 321.11-15.8ZM346.26-16.1L346.26-16.1 353.46-16.2Q353.61-16.1 353.61-16.05L353.61-16.05Q353.61-15.6 347.38-14.8 341.16-14 340.66-13.85L340.66-13.85Q339.71-13 337.16-8.78 334.61-4.55 334.61-2.6L334.61-2.6Q334.61-0.75 337.16-0.75L337.16-0.75Q338.36-0.75 340.31-1.5 342.26-2.25 343.31-2.9L343.31-2.9Q346.11-4.65 349.31-8.05L349.31-8.05Q350.01-8.75 350.26-8.75L350.26-8.75Q350.41-8.75 350.41-8.45 350.41-8.15 349.66-7.25L349.66-7.25Q347.06-4.05 343.81-2.1L343.81-2.1Q339.91 0.3 336.36 0.3L336.36 0.3Q334.81 0.3 333.83-0.38 332.86-1.05 332.86-3.1 332.86-5.15 334.66-8.72 336.46-12.3 337.41-14.05L337.41-14.05Q336.71-13.9 336.21-13.9L336.21-13.9Q334.76-13.9 334.76-15.05L334.76-15.05Q334.76-15.9 335.96-16.25L335.96-16.25Q336.11-16.25 336.41-16.3L336.41-16.3 339.31-16.3Q340.21-17.45 341.36-18.95L341.36-18.95Q342.76-20.75 343.26-20.75 343.76-20.75 344.51-20.35 345.26-19.95 345.26-19.4 345.26-18.85 342.86-16.15L342.86-16.15Q344.16-16.1 346.26-16.1ZM358.86-1.8L357.25-0.75Q355.81 0.1 353.68 0.1 351.56 0.1 350.43-1.3 349.31-2.7 348.5-5.75L348.5-5.75Q347.61-4.85 347.25-4.85L347.25-4.85Q347-4.85 347-5.2 347-5.55 347.25-5.8L347.25-5.8Q348.91-7.85 352.86-11.7L352.86-11.7 359.16-17.6Q361.86-20.15 362.36-20.15L362.36-20.15Q363.95-20.15 363.95-18.95L363.95-18.95Q363.95-18.35 363.48-17.78 363-17.2 362.78-16.88 362.56-16.55 362.31-16.25L362.31-16.25Q361.41-14.7 360.48-9.85 359.56-5 359.06-3.1L359.06-3.1Q363.2-3.15 367.61-8.5L367.61-8.5Q368.11-9 368.36-9 368.61-9 368.61-8.68 368.61-8.35 368.16-7.8L368.16-7.8Q365.25-4.4 362.75-3.05L362.75-3.05Q361.25-2.3 358.86-1.8L358.86-1.8ZM350.5-6.3L350.5-6.3Q350.5-4.6 351.63-3.53 352.75-2.45 354.16-2.45 355.56-2.45 356.31-3L356.31-3Q357.31-3.55 358.28-7.6 359.25-11.65 359.45-14.75L359.45-14.75 359.66-16.45Q356.91-14.4 353.78-11.15 350.66-7.9 350.56-6.85L350.56-6.85Q350.5-6.55 350.5-6.3Z" opacity="1" transform="matrix(1,0,0,1,0,0)" fill="#000000" class="wordmark-text-0" data-fill-palette-color="primary" id="text-0"></path></svg></g></svg></g><g transform="matrix(1,0,0,1,0,24.59803523020904)"><svg viewBox="0 0 192 13.265788806473367" height="13.265788806473367" width="192"><g transform="matrix(1,0,0,1,0,0)"><svg width="192" viewBox="3.3 -37.5 549.99 38" height="13.265788806473367" data-palette-color="#233565"><path d="M19.7-18.9Q25.4-16.7 25.4-10L25.4-10Q25.4-5.3 22.73-2.65 20.05 0 15.4 0L15.4 0 3.3 0 3.3-35 13.55-35Q18.05-35 20.4-32.85 22.75-30.7 22.75-26.45L22.75-26.45Q22.75-23.9 21.98-21.95 21.2-20 19.7-18.9L19.7-18.9ZM8.55-30.2L8.55-20.7 12.75-20.7Q15.25-20.7 16.32-21.78 17.4-22.85 17.4-25.5L17.4-25.5Q17.4-28.1 16.32-29.15 15.25-30.2 12.75-30.2L12.75-30.2 8.55-30.2ZM14.7-4.8Q17.15-4.8 18.5-6.15 19.85-7.5 19.85-10.3L19.85-10.3Q19.85-13.35 18.5-14.65 17.15-15.95 14.7-15.95L14.7-15.95 8.55-15.95 8.55-4.8 14.7-4.8ZM46.49 0.5Q42.74 0.5 40.12-1.23 37.49-2.95 36.17-5.9 34.84-8.85 34.84-12.45L34.84-12.45Q34.84-16 36.07-18.9 37.29-21.8 39.67-23.48 42.04-25.15 45.34-25.15L45.34-25.15Q49.49-25.15 52.02-22.3 54.54-19.45 54.54-14.5L54.54-14.5Q54.54-13.4 54.29-11.8L54.29-11.8 40.04-11.8Q40.24-7.9 42.14-5.9 44.04-3.9 46.94-3.9L46.94-3.9Q48.59-3.9 50.27-4.33 51.94-4.75 53.29-5.55L53.29-5.55 53.59-1.05Q50.74 0.5 46.49 0.5L46.49 0.5ZM40.19-15.35L49.39-15.35Q49.39-17.8 48.37-19.3 47.34-20.8 45.19-20.8L45.19-20.8Q43.19-20.8 41.89-19.43 40.59-18.05 40.19-15.35L40.19-15.35ZM70.94 0.5Q68.79 0.5 67.01 0.03 65.24-0.45 63.59-1.4L63.59-1.4 64.14-6.2Q67.54-3.7 70.54-3.7L70.54-3.7Q72.29-3.7 73.26-4.4 74.24-5.1 74.24-6.45L74.24-6.45Q74.24-7.85 73.29-8.68 72.34-9.5 69.39-10.9L69.39-10.9Q66.49-12.25 65.16-13.88 63.84-15.5 63.84-18.2L63.84-18.2Q63.84-21.3 66.04-23.23 68.24-25.15 71.94-25.15L71.94-25.15Q75.59-25.15 78.34-23.45L78.34-23.45 77.79-18.9Q76.39-20 75.14-20.53 73.89-21.05 72.29-21.05L72.29-21.05Q70.69-21.05 69.74-20.35 68.79-19.65 68.79-18.4L68.79-18.4Q68.79-17.15 69.69-16.43 70.59-15.7 73.24-14.4L73.24-14.4Q76.44-12.9 77.84-11.23 79.24-9.55 79.24-6.85L79.24-6.85Q79.24-3.4 76.99-1.45 74.74 0.5 70.94 0.5L70.94 0.5ZM96.28 0.5Q93.48 0.5 92.01-1.18 90.53-2.85 90.53-5.65L90.53-5.65 90.53-20.55 87.43-20.55 87.88-24.7 90.53-24.7 90.53-30.55 95.63-31.05 95.63-24.7 100.48-24.7 100.48-20.55 95.63-20.55 95.63-7.3Q95.63-5.4 96.38-4.58 97.13-3.75 98.83-3.75L98.83-3.75 100.48-3.75 100.03 0.5 96.28 0.5ZM127.17 0L127.17-35 145.67-35 145.67-30.2 132.42-30.2 132.42-20.75 142.67-20.75 142.67-15.95 132.42-15.95 132.42 0 127.17 0ZM163.32 0.5Q160.02 0.5 157.57-1.23 155.12-2.95 153.82-5.88 152.52-8.8 152.52-12.35L152.52-12.35Q152.52-15.9 153.82-18.82 155.12-21.75 157.54-23.45 159.97-25.15 163.32-25.15L163.32-25.15Q166.67-25.15 169.12-23.45 171.57-21.75 172.87-18.82 174.17-15.9 174.17-12.35L174.17-12.35Q174.17-8.8 172.87-5.88 171.57-2.95 169.12-1.23 166.67 0.5 163.32 0.5L163.32 0.5ZM163.32-3.8Q166.02-3.8 167.49-6.1 168.97-8.4 168.97-12.35L168.97-12.35Q168.97-16.3 167.47-18.57 165.97-20.85 163.32-20.85L163.32-20.85Q160.67-20.85 159.19-18.57 157.72-16.3 157.72-12.35L157.72-12.35Q157.72-8.4 159.19-6.1 160.67-3.8 163.32-3.8L163.32-3.8ZM193.71 0.5Q190.41 0.5 187.96-1.23 185.51-2.95 184.21-5.88 182.91-8.8 182.91-12.35L182.91-12.35Q182.91-15.9 184.21-18.82 185.51-21.75 187.94-23.45 190.36-25.15 193.71-25.15L193.71-25.15Q197.06-25.15 199.51-23.45 201.96-21.75 203.26-18.82 204.56-15.9 204.56-12.35L204.56-12.35Q204.56-8.8 203.26-5.88 201.96-2.95 199.51-1.23 197.06 0.5 193.71 0.5L193.71 0.5ZM193.71-3.8Q196.41-3.8 197.89-6.1 199.36-8.4 199.36-12.35L199.36-12.35Q199.36-16.3 197.86-18.57 196.36-20.85 193.71-20.85L193.71-20.85Q191.06-20.85 189.59-18.57 188.11-16.3 188.11-12.35L188.11-12.35Q188.11-8.4 189.59-6.1 191.06-3.8 193.71-3.8L193.71-3.8ZM229.01-37.5L234.11-37.5 234.11 0 229.46 0 229.21-2Q226.81 0.5 223.21 0.5L223.21 0.5Q220.26 0.5 217.98-1.2 215.71-2.9 214.48-5.83 213.26-8.75 213.26-12.3L213.26-12.3Q213.26-15.8 214.46-18.73 215.66-21.65 217.91-23.4 220.16-25.15 223.21-25.15L223.21-25.15Q226.61-25.15 229.01-22.9L229.01-22.9 229.01-37.5ZM223.81-3.8Q226.46-3.8 227.91-5.98 229.36-8.15 229.36-12.3L229.36-12.3Q229.36-16.4 227.91-18.63 226.46-20.85 223.81-20.85L223.81-20.85Q221.41-20.85 219.93-18.45 218.46-16.05 218.46-12.3L218.46-12.3Q218.46-8.65 219.96-6.23 221.46-3.8 223.81-3.8L223.81-3.8ZM266.55 0.5Q263.75 0.5 261.9-1.43 260.05-3.35 260.05-6.55L260.05-6.55Q260.05-9.85 262.05-11.85 264.05-13.85 266.82-14.7 269.6-15.55 272.2-15.6L272.2-15.6Q272.2-18.35 271.32-19.48 270.45-20.6 268.35-20.6L268.35-20.6Q265.45-20.6 262.4-18.5L262.4-18.5 261.9-22.75Q265.35-25.15 269.5-25.15L269.5-25.15Q273.4-25.15 275.37-22.9 277.35-20.65 277.35-15.7L277.35-15.7 277.35-8.4Q277.35-5.65 277.72-4.7 278.1-3.75 279.3-3.75L279.3-3.75 279.95-3.75 279.5 0.5 277.8 0.5Q274.2 0.5 272.9-2.8L272.9-2.8Q270.25 0.5 266.55 0.5L266.55 0.5ZM268.2-3.6Q269.3-3.6 270.35-4.3 271.4-5 272.25-6.25L272.25-6.25 272.25-12.05Q265.4-11.55 265.4-6.95L265.4-6.95Q265.4-3.6 268.2-3.6L268.2-3.6ZM300.49-25.15Q304.24-25.15 306.27-22.4 308.29-19.65 308.29-15L308.29-15 308.29 0 303.19 0 303.19-14.35Q303.19-17.6 302.22-19.23 301.24-20.85 299.19-20.85L299.19-20.85Q296.24-20.85 294.49-17.95L294.49-17.95 294.49 0 289.39 0 289.39-24.7 293.74-24.7 293.99-22.15Q295.09-23.55 296.77-24.35 298.44-25.15 300.49-25.15L300.49-25.15ZM333.78-37.5L338.88-37.5 338.88 0 334.23 0 333.98-2Q331.58 0.5 327.98 0.5L327.98 0.5Q325.03 0.5 322.76-1.2 320.48-2.9 319.26-5.83 318.03-8.75 318.03-12.3L318.03-12.3Q318.03-15.8 319.23-18.73 320.43-21.65 322.68-23.4 324.93-25.15 327.98-25.15L327.98-25.15Q331.38-25.15 333.78-22.9L333.78-22.9 333.78-37.5ZM328.58-3.8Q331.23-3.8 332.68-5.98 334.13-8.15 334.13-12.3L334.13-12.3Q334.13-16.4 332.68-18.63 331.23-20.85 328.58-20.85L328.58-20.85Q326.18-20.85 324.71-18.45 323.23-16.05 323.23-12.3L323.23-12.3Q323.23-8.65 324.73-6.23 326.23-3.8 328.58-3.8L328.58-3.8ZM372.77 0.5Q370.62 0.5 368.85 0.03 367.07-0.45 365.42-1.4L365.42-1.4 365.97-6.2Q369.37-3.7 372.37-3.7L372.37-3.7Q374.12-3.7 375.1-4.4 376.07-5.1 376.07-6.45L376.07-6.45Q376.07-7.85 375.12-8.68 374.17-9.5 371.22-10.9L371.22-10.9Q368.32-12.25 367-13.88 365.67-15.5 365.67-18.2L365.67-18.2Q365.67-21.3 367.87-23.23 370.07-25.15 373.77-25.15L373.77-25.15Q377.42-25.15 380.17-23.45L380.17-23.45 379.62-18.9Q378.22-20 376.97-20.53 375.72-21.05 374.12-21.05L374.12-21.05Q372.52-21.05 371.57-20.35 370.62-19.65 370.62-18.4L370.62-18.4Q370.62-17.15 371.52-16.43 372.42-15.7 375.07-14.4L375.07-14.4Q378.27-12.9 379.67-11.23 381.07-9.55 381.07-6.85L381.07-6.85Q381.07-3.4 378.82-1.45 376.57 0.5 372.77 0.5L372.77 0.5ZM401.32 0.5Q397.57 0.5 394.94-1.23 392.32-2.95 390.99-5.9 389.67-8.85 389.67-12.45L389.67-12.45Q389.67-16 390.89-18.9 392.12-21.8 394.49-23.48 396.87-25.15 400.17-25.15L400.17-25.15Q404.32-25.15 406.84-22.3 409.37-19.45 409.37-14.5L409.37-14.5Q409.37-13.4 409.12-11.8L409.12-11.8 394.87-11.8Q395.07-7.9 396.97-5.9 398.87-3.9 401.77-3.9L401.77-3.9Q403.42-3.9 405.09-4.33 406.77-4.75 408.12-5.55L408.12-5.55 408.42-1.05Q405.57 0.5 401.32 0.5L401.32 0.5ZM395.02-15.35L404.22-15.35Q404.22-17.8 403.19-19.3 402.17-20.8 400.02-20.8L400.02-20.8Q398.02-20.8 396.72-19.43 395.42-18.05 395.02-15.35L395.02-15.35ZM419.46 0L419.46-24.7 423.76-24.7 424.26-21.25Q425.81-23.3 427.16-24.23 428.51-25.15 430.16-25.15L430.16-25.15Q430.86-25.15 431.36-25L431.36-25 430.91-19.6Q430.01-19.8 429.36-19.8L429.36-19.8Q427.96-19.8 426.71-19.07 425.46-18.35 424.51-17.2L424.51-17.2 424.51 0 419.46 0ZM446.26 0L437.96-24.7 443.31-24.7 448.61-6.4 453.86-24.7 459.21-24.7 450.96 0 446.26 0ZM468.35-29.5L468.35-35 473.45-35 473.45-29.5 468.35-29.5ZM468.35 0L468.35-24.7 473.45-24.7 473.45 0 468.35 0ZM495.15 0.5Q491.4 0.5 488.8-1.18 486.2-2.85 484.9-5.75 483.6-8.65 483.6-12.25L483.6-12.25Q483.6-17.95 486.6-21.55 489.6-25.15 495.3-25.15L495.3-25.15Q498.3-25.15 500.5-24.1L500.5-24.1 499.9-19.8Q497.9-20.85 495.65-20.85L495.65-20.85Q492.4-20.85 490.6-18.57 488.8-16.3 488.8-12.35L488.8-12.35Q488.8-8.5 490.62-6.15 492.45-3.8 495.75-3.8L495.75-3.8Q498-3.8 500-4.85L500-4.85 500.5-0.6Q499.5-0.1 498.07 0.2 496.65 0.5 495.15 0.5L495.15 0.5ZM520.54 0.5Q516.79 0.5 514.17-1.23 511.54-2.95 510.22-5.9 508.89-8.85 508.89-12.45L508.89-12.45Q508.89-16 510.12-18.9 511.34-21.8 513.72-23.48 516.09-25.15 519.39-25.15L519.39-25.15Q523.54-25.15 526.07-22.3 528.59-19.45 528.59-14.5L528.59-14.5Q528.59-13.4 528.34-11.8L528.34-11.8 514.09-11.8Q514.29-7.9 516.19-5.9 518.09-3.9 520.99-3.9L520.99-3.9Q522.64-3.9 524.32-4.33 525.99-4.75 527.34-5.55L527.34-5.55 527.64-1.05Q524.79 0.5 520.54 0.5L520.54 0.5ZM514.24-15.35L523.44-15.35Q523.44-17.8 522.42-19.3 521.39-20.8 519.24-20.8L519.24-20.8Q517.24-20.8 515.94-19.43 514.64-18.05 514.24-15.35L514.24-15.35ZM544.99 0.5Q542.84 0.5 541.06 0.03 539.29-0.45 537.64-1.4L537.64-1.4 538.19-6.2Q541.59-3.7 544.59-3.7L544.59-3.7Q546.34-3.7 547.31-4.4 548.29-5.1 548.29-6.45L548.29-6.45Q548.29-7.85 547.34-8.68 546.39-9.5 543.44-10.9L543.44-10.9Q540.54-12.25 539.21-13.88 537.89-15.5 537.89-18.2L537.89-18.2Q537.89-21.3 540.09-23.23 542.29-25.15 545.99-25.15L545.99-25.15Q549.64-25.15 552.39-23.45L552.39-23.45 551.84-18.9Q550.44-20 549.19-20.53 547.94-21.05 546.34-21.05L546.34-21.05Q544.74-21.05 543.79-20.35 542.84-19.65 542.84-18.4L542.84-18.4Q542.84-17.15 543.74-16.43 544.64-15.7 547.29-14.4L547.29-14.4Q550.49-12.9 551.89-11.23 553.29-9.55 553.29-6.85L553.29-6.85Q553.29-3.4 551.04-1.45 548.79 0.5 544.99 0.5L544.99 0.5Z" opacity="1" transform="matrix(1,0,0,1,0,0)" fill="#000000" class="slogan-text-1" data-fill-palette-color="secondary" id="text-1"></path></svg></g></svg></g></svg></g></svg></g><g transform="matrix(1,0,0,1,69.83609759065246,0)"><svg viewBox="0 0 52.32780481869509 52.32780481869509" height="52.32780481869509" width="52.32780481869509"><g><svg xmlns="http://www.w3.org/2000/svg" xmlns:xlink="http://www.w3.org/1999/xlink" version="1.1" x="0" y="0" viewBox="0 0 100 100" enable-background="new 0 0 100 100" xml:space="preserve" height="52.32780481869509" width="52.32780481869509" class="icon-icon-0" data-fill-palette-color="accent" id="icon-0"><g fill="#8bd8bc" data-fill-palette-color="accent"></g><g fill="#8bd8bc" data-fill-palette-color="accent"><g fill="#8bd8bc" data-fill-palette-color="accent"><path d="M40.004 62.747h-3.843c-0.156 0-0.285 0.128-0.285 0.285v1.287c0 0.157 0.129 0.285 0.285 0.285h3.843c0.158 0 0.287-0.128 0.287-0.286v-1.286C40.291 62.874 40.162 62.747 40.004 62.747zM44.126 59.943c-0.11-0.111-0.292-0.112-0.403-0.001l-0.911 0.91c-0.111 0.111-0.11 0.293 0 0.404l2.718 2.717c0.111 0.112 0.292 0.112 0.404 0.001l0.911-0.91c0.11-0.111 0.11-0.292-0.001-0.403L44.126 59.943zM43.526 63.813c-0.111-0.111-0.292-0.11-0.403 0.001l-2.718 2.717c-0.11 0.111-0.112 0.292 0 0.403l0.909 0.91c0.112 0.112 0.293 0.111 0.404 0l2.717-2.717c0.112-0.111 0.112-0.293 0.001-0.404L43.526 63.813zM33.871 63.157h-1.287c-0.156 0-0.285 0.129-0.284 0.287v3.843c0 0.157 0.128 0.285 0.285 0.285h1.287c0.157 0 0.285-0.128 0.285-0.285v-3.843C34.157 63.286 34.029 63.157 33.871 63.157zM53.403 65.94H49.56c-0.158 0-0.287 0.128-0.287 0.284v1.287c0 0.158 0.129 0.286 0.287 0.286h3.843c0.157 0 0.285-0.128 0.285-0.285v-1.287C53.688 66.067 53.56 65.94 53.403 65.94zM25.238 22.333l48.117 4.67c0.251 0.024 0.475-0.16 0.5-0.411l0.069-0.707c0.024-0.251-0.161-0.476-0.412-0.5l-48.117-4.67c-0.25-0.024-0.474 0.16-0.498 0.412l-0.069 0.707C24.803 22.084 24.988 22.309 25.238 22.333zM25.088 30.109h29.448c-0.211 0.406-0.341 0.861-0.341 1.352 0 1.095 0.599 2.042 1.481 2.559-0.882 0.517-1.481 1.463-1.481 2.559 0 1.096 0.599 2.042 1.481 2.559-0.871 0.511-1.463 1.44-1.478 2.518h-0.003c0 0.007 0.001 0.013 0.002 0.02 0 0.007-0.002 0.014-0.002 0.021 0 0.034 0.009 0.066 0.01 0.1 0.005 0.111 0.014 0.221 0.032 0.328 0.016 0.109 0.038 0.214 0.066 0.318 0 0.001 0.001 0.002 0.001 0.003 0.2 0.759 0.691 1.391 1.35 1.782-0.869 0.52-1.458 1.458-1.458 2.544 0 1.096 0.599 2.042 1.481 2.559-0.882 0.517-1.481 1.463-1.481 2.559 0 1.562 1.208 2.828 2.738 2.951l0.316-0.009h0.35l0.177 0c0.251 0 0.459-0.205 0.458-0.458v-0.726c0-0.253-0.206-0.458-0.458-0.458h-0.529c-0.007 0-0.008 0.002-0.014 0.002-0.052 0.004-0.183 0.011-0.174 0.012-0.697-0.06-1.222-0.623-1.222-1.314 0-0.47 0.25-0.897 0.67-1.142 0.503-0.295 0.811-0.834 0.811-1.417 0-0.583-0.309-1.122-0.812-1.416-0.419-0.245-0.669-0.672-0.669-1.142 0-0.47 0.25-0.897 0.669-1.142 0.503-0.295 0.812-0.834 0.812-1.417s-0.309-1.122-0.812-1.417c-0.413-0.242-0.659-0.66-0.666-1.121 0.007-0.461 0.253-0.88 0.667-1.122 0.503-0.295 0.811-0.834 0.811-1.417 0-0.583-0.309-1.122-0.812-1.416-0.419-0.245-0.669-0.672-0.669-1.142 0-0.47 0.25-0.897 0.669-1.142 0.503-0.295 0.812-0.834 0.812-1.417s-0.309-1.122-0.812-1.417c-0.419-0.245-0.669-0.672-0.669-1.142 0-0.693 0.527-1.257 1.226-1.315 0.044 0 0.547 0.004 0.547 0.004v-0.008h0.072l0.003 0h0.784c-0.201 0.398-0.325 0.841-0.325 1.319 0 1.095 0.599 2.042 1.48 2.559-0.882 0.517-1.48 1.463-1.48 2.559 0 1.096 0.599 2.042 1.48 2.559-0.87 0.511-1.462 1.44-1.478 2.518h-0.003c0 0.007 0.001 0.013 0.002 0.02 0 0.007-0.002 0.014-0.002 0.021 0 0.034 0.009 0.066 0.01 0.1 0.005 0.111 0.014 0.221 0.032 0.328 0.016 0.109 0.038 0.214 0.066 0.318 0 0.001 0.001 0.002 0.001 0.003 0.2 0.759 0.69 1.391 1.35 1.782-0.869 0.52-1.458 1.458-1.458 2.544 0 1.096 0.599 2.042 1.48 2.559-0.882 0.517-1.48 1.463-1.48 2.559 0 1.562 1.207 2.828 2.738 2.951l0.316-0.009h0.35l0.176 0c0.251 0 0.459-0.205 0.458-0.458v-0.726c0-0.253-0.207-0.458-0.458-0.458h-0.529c-0.007 0-0.008 0.002-0.014 0.002-0.052 0.004-0.183 0.011-0.174 0.012-0.697-0.06-1.222-0.623-1.222-1.314 0-0.47 0.25-0.897 0.67-1.142 0.503-0.295 0.811-0.834 0.811-1.417 0-0.583-0.309-1.122-0.812-1.416-0.419-0.245-0.669-0.672-0.669-1.142 0-0.47 0.25-0.897 0.669-1.142 0.503-0.295 0.812-0.834 0.812-1.417s-0.309-1.122-0.812-1.417c-0.412-0.242-0.659-0.66-0.666-1.121 0.007-0.461 0.254-0.88 0.667-1.122 0.503-0.295 0.811-0.834 0.811-1.417 0-0.583-0.309-1.122-0.812-1.416-0.419-0.245-0.669-0.672-0.669-1.142 0-0.47 0.25-0.897 0.669-1.142 0.503-0.295 0.812-0.834 0.812-1.417s-0.309-1.122-0.812-1.417c-0.419-0.245-0.669-0.672-0.669-1.142 0-0.693 0.527-1.257 1.226-1.315 0.044 0 0.547 0.004 0.547 0.004v-0.008h0.858c-0.201 0.398-0.324 0.841-0.324 1.319 0 1.095 0.599 2.042 1.481 2.559-0.882 0.517-1.481 1.463-1.481 2.559 0 1.096 0.599 2.042 1.481 2.559-0.871 0.511-1.463 1.44-1.478 2.518h-0.003c0 0.007 0.001 0.013 0.002 0.02 0 0.007-0.002 0.014-0.002 0.021 0 0.034 0.009 0.066 0.01 0.1 0.005 0.111 0.014 0.221 0.032 0.328 0.016 0.109 0.038 0.214 0.066 0.318 0 0.001 0.001 0.002 0.001 0.003 0.2 0.759 0.691 1.391 1.35 1.782-0.869 0.52-1.458 1.458-1.458 2.544 0 1.096 0.599 2.042 1.481 2.559-0.882 0.517-1.481 1.463-1.481 2.559 0 1.562 1.208 2.828 2.738 2.951l0.316-0.009h0.35l0.176 0c0.252 0 0.459-0.205 0.458-0.458v-0.726c0-0.253-0.207-0.458-0.458-0.458h-0.529c-0.007 0-0.008 0.002-0.014 0.002-0.052 0.004-0.183 0.011-0.174 0.012-0.696-0.06-1.222-0.623-1.222-1.314 0-0.47 0.25-0.897 0.67-1.142 0.502-0.295 0.811-0.834 0.811-1.417 0-0.583-0.309-1.122-0.812-1.416-0.419-0.245-0.669-0.672-0.669-1.142 0-0.47 0.25-0.897 0.669-1.142 0.502-0.295 0.812-0.834 0.812-1.417s-0.309-1.122-0.812-1.417c-0.412-0.242-0.659-0.66-0.666-1.121 0.007-0.461 0.254-0.88 0.667-1.122 0.502-0.295 0.811-0.834 0.811-1.417 0-0.583-0.309-1.122-0.812-1.416-0.419-0.245-0.669-0.672-0.669-1.142 0-0.47 0.25-0.897 0.669-1.142 0.502-0.295 0.812-0.834 0.812-1.417s-0.309-1.122-0.812-1.417c-0.419-0.245-0.669-0.672-0.669-1.142 0-0.693 0.526-1.257 1.226-1.315 0.044 0 0.547 0.004 0.547 0.004v-0.008h0.858c-0.201 0.398-0.324 0.841-0.324 1.319 0 1.095 0.599 2.042 1.481 2.559-0.882 0.517-1.481 1.463-1.481 2.559 0 1.096 0.599 2.042 1.481 2.559-0.871 0.511-1.463 1.44-1.478 2.518H66.04c0 0.007 0.001 0.013 0.002 0.02 0 0.007-0.002 0.014-0.002 0.021 0 0.034 0.009 0.066 0.01 0.1 0.005 0.111 0.014 0.221 0.032 0.328 0.016 0.109 0.038 0.214 0.066 0.318 0 0.001 0.001 0.002 0.001 0.003 0.2 0.759 0.691 1.391 1.35 1.782-0.869 0.52-1.458 1.458-1.458 2.544 0 1.096 0.599 2.042 1.481 2.559-0.882 0.517-1.481 1.463-1.481 2.559 0 1.562 1.208 2.828 2.738 2.951l0.316-0.009h0.35l0.176 0c0.251 0 0.459-0.205 0.458-0.458v-0.726c0-0.253-0.207-0.458-0.458-0.458h-0.529c-0.007 0-0.008 0.002-0.014 0.002-0.052 0.004-0.183 0.011-0.174 0.012-0.696-0.06-1.222-0.623-1.222-1.314 0-0.47 0.25-0.897 0.67-1.142 0.503-0.295 0.811-0.834 0.811-1.417 0-0.583-0.309-1.122-0.812-1.416-0.419-0.245-0.669-0.672-0.669-1.142 0-0.47 0.25-0.897 0.669-1.142 0.503-0.295 0.812-0.834 0.812-1.417s-0.309-1.122-0.812-1.417c-0.412-0.242-0.659-0.66-0.666-1.121 0.007-0.461 0.254-0.88 0.667-1.122 0.503-0.295 0.811-0.834 0.811-1.417 0-0.583-0.309-1.122-0.812-1.416-0.419-0.245-0.669-0.672-0.669-1.142 0-0.47 0.25-0.897 0.669-1.142 0.503-0.295 0.812-0.834 0.812-1.417s-0.309-1.122-0.812-1.417c-0.419-0.245-0.669-0.672-0.669-1.142 0-0.693 0.526-1.257 1.226-1.315 0.044 0 0.547 0.004 0.547 0.004v-0.008h0.858c-0.201 0.398-0.324 0.842-0.324 1.319 0 1.095 0.599 2.042 1.481 2.559-0.882 0.517-1.481 1.463-1.481 2.559 0 1.096 0.599 2.042 1.481 2.559-0.871 0.511-1.463 1.44-1.478 2.518h-0.003c0 0.007 0.001 0.013 0.002 0.02 0 0.007-0.002 0.014-0.002 0.021 0 0.034 0.008 0.066 0.01 0.1 0.005 0.111 0.014 0.221 0.032 0.328 0.016 0.109 0.038 0.214 0.066 0.318 0 0.001 0.001 0.002 0.001 0.003 0.2 0.759 0.691 1.391 1.35 1.782-0.869 0.52-1.458 1.458-1.458 2.544 0 1.096 0.599 2.042 1.481 2.559-0.882 0.517-1.481 1.463-1.481 2.559 0 1.562 1.208 2.828 2.738 2.951l0.316-0.009h0.35l0.176 0c0.251 0 0.459-0.205 0.458-0.458v-0.726c0-0.253-0.206-0.458-0.458-0.458h-0.529c-0.007 0-0.008 0.002-0.014 0.002-0.052 0.004-0.183 0.011-0.174 0.012-0.696-0.06-1.222-0.623-1.222-1.314 0-0.47 0.25-0.897 0.67-1.142 0.503-0.295 0.811-0.834 0.811-1.417 0-0.583-0.309-1.122-0.812-1.416-0.419-0.245-0.669-0.672-0.669-1.142 0-0.47 0.25-0.897 0.669-1.142 0.503-0.295 0.812-0.834 0.812-1.417s-0.309-1.122-0.812-1.417c-0.412-0.242-0.659-0.66-0.666-1.121 0.007-0.461 0.254-0.88 0.667-1.122 0.503-0.295 0.811-0.834 0.811-1.417 0-0.583-0.309-1.122-0.812-1.416-0.419-0.245-0.669-0.672-0.669-1.142 0-0.47 0.25-0.897 0.669-1.142 0.503-0.295 0.812-0.834 0.812-1.417s-0.309-1.122-0.812-1.417c-0.419-0.245-0.669-0.672-0.669-1.142 0-0.693 0.527-1.257 1.226-1.315 0.044 0 0.547 0.004 0.547 0.004v-0.008h0.176c0.251 0 0.459-0.205 0.458-0.458v-0.718c0-0.253-0.206-0.458-0.458-0.458H57.046c-0.005 0-0.005 0.001-0.01 0.001l-0.103 0c-0.04 0.003-0.077 0.016-0.116 0.021-0.059-0.028-0.124-0.046-0.193-0.046H25.088c-0.251 0-0.457 0.205-0.457 0.458v0.711C24.632 29.904 24.837 30.109 25.088 30.109zM88.947 56.717H49.926c0.184 0.125 0.354 0.264 0.52 0.408 0.03 0.027 0.065 0.049 0.095 0.076 0.161 0.146 0.308 0.306 0.451 0.472 0.026 0.031 0.057 0.057 0.083 0.089 0.142 0.173 0.271 0.363 0.394 0.559 0.02 0.03 0.043 0.056 0.062 0.088 0.139 0.23 0.264 0.475 0.376 0.737h0.036c0.316 0 0.62 0.012 0.916 0.031 0.103 0.007 0.201 0.017 0.301 0.026 0.19 0.017 0.377 0.037 0.558 0.061 0.112 0.015 0.222 0.032 0.33 0.051 0.171 0.029 0.337 0.063 0.5 0.099 0.095 0.021 0.192 0.041 0.284 0.065 0.246 0.064 0.486 0.134 0.713 0.217h26.759c-1.523 1.759-3.066 4.522-4.087 8.814-1.151 4.855-2.59 7.778-4.191 9.393-1.596 1.601-3.367 2.148-5.914 2.167h-4.154c0.918-0.892 1.797-2.022 2.566-3.449 0.989-1.838 2.54-2.834 3.913-3.393 0.636-0.259 1.219-0.413 1.656-0.502h2.479c0.251 0 0.458-0.205 0.458-0.458v-2.062c0-0.251-0.206-0.457-0.458-0.457h-6.047c-0.553-1.468-1.468-2.675-2.718-3.474-1.537-0.992-3.436-1.379-5.612-1.38h-0.181c-0.631 0-1.234 0.035-1.81 0.106-0.566-1.369-1.465-2.491-2.659-3.247-1.331-0.849-2.931-1.25-4.748-1.34-0.662-1.146-1.615-2.058-2.777-2.651-1.425-0.735-3.105-1.031-5.007-1.031h-0.181c-2.148 0-4.033 0.381-5.551 1.342-0.455-0.041-0.924-0.06-1.41-0.06h-0.18c-2.56-0.002-4.764 0.545-6.391 1.967-1.359 1.189-2.156 2.884-2.47 4.944-1.832 0.11-3.441 0.543-4.766 1.445-1.185 0.799-2.052 1.966-2.585 3.38h-6.968c-0.253 0-0.459 0.205-0.459 0.457v2.062c0 0.253 0.206 0.458 0.459 0.458h2.481c1.362 0.284 4.154 1.208 5.564 3.895 2.588 4.808 6.427 6.312 8.826 6.307h28.329c0.339 0 0.708-0.034 1.096-0.099h9.305c0.036 0 0.072 0 0.108 0 2.913 0 5.643-0.799 7.776-2.995 2.155-2.209 3.687-5.597 4.905-10.686 1.138-4.768 2.869-7.163 4.201-8.386 0.628-0.575 1.169-0.889 1.553-1.067h2.291c0.251 0 0.458-0.205 0.458-0.458v-2.062C89.405 56.922 89.198 56.717 88.947 56.717zM23.62 68.644c0.911-0.626 2.279-0.993 4.197-0.992h0.158c0.012 0 0.046 0.002 0.1 0.002 0.728 0 1.331-0.568 1.376-1.295 0.143-2.212 0.754-3.502 1.669-4.307 0.916-0.809 2.373-1.281 4.573-1.283h0.18c0.576 0 1.105 0.033 1.587 0.097 0.361 0.048 0.725-0.049 1.015-0.268 0.916-0.7 2.324-1.11 4.358-1.11h0.181c1.617-0.002 2.855 0.262 3.739 0.723 0.885 0.468 1.473 1.092 1.916 2.102 0.217 0.509 0.714 0.838 1.268 0.838h0.037c1.84-0.002 3.179 0.339 4.083 0.924 0.901 0.589 1.502 1.413 1.876 2.832 0.186 0.729 0.923 1.174 1.655 1 0.692-0.165 1.497-0.254 2.427-0.254h0.181c1.858-0.002 3.204 0.344 4.113 0.935 0.462 0.307 0.845 0.678 1.159 1.16h-42.92C22.842 69.295 23.197 68.938 23.62 68.644zM57.699 80.169H29.382c-1.324-0.005-4.25-0.871-6.398-4.856-0.583-1.055-1.284-1.899-2.028-2.585 0.002-0.001 0.004-0.002 0.005-0.003h45.163c-0.745 0.686-1.446 1.531-2.03 2.587C61.949 79.298 59.022 80.163 57.699 80.169z" fill="#000000" data-fill-palette-color="accent"></path></g></g></svg></g></svg></g><g></g></svg></g></svg></g></svg></g></svg></g><defs></defs></svg><rect width="320" height="360" fill="none" stroke="none" visibility="hidden"></rect></g></svg></g></svg>